{
    "asset" : {
        "generator" : "Khronos glTF Blender I/O v1.7.33",
        "version" : "2.0"
    },
    "scene" : 0,
    "scenes" : [
        {
            "extras" : {
                "b_export" : 1,
                "export_path" : "C:\\Users\\\u0411\u043e\u0433\u0434\u0430\u043d\\Desktop\\",
                "s_output" : "exporting...",
                "s_project_name" : "\u043f\u0440\u043e\u0435\u043a\u0442 7",
                "b_export_single_model" : 1,
                "b_bake_lightmap" : 1,
                "b_use_lightmapper" : 0,
                "b_renderer" : 1,
                "b_physicallyCorrectLights" : 0,
                "b_settings" : 1,
                "b_colorManagement" : 0,
                "b_aa" : 0,
                "b_player" : 1,
                "b_interactive" : 1
            },
            "name" : "Scene",
            "nodes" : [
                0,
                1
            ]
        }
    ],
    "nodes" : [
        {
            "mesh" : 0,
            "name" : "Cube",
            "rotation" : [
                0,
                0.9999162554740906,
                0,
                0.012940716929733753
            ],
            "scale" : [
                0.06645277887582779,
                0.06645277887582779,
                0.06645277887582779
            ],
            "translation" : [
                0.5149235129356384,
                1.5424470901489258,
                -2.3385822772979736
            ]
        },
        {
            "mesh" : 1,
            "name" : "\u041a\u0443\u0431",
            "rotation" : [
                0,
                0.9999162554740906,
                0,
                0.012940716929733753
            ],
            "scale" : [
                0.03656066954135895,
                0.03656066954135895,
                0.03656066954135895
            ],
            "translation" : [
                0.6718993186950684,
                1.5954123735427856,
                -2.910656452178955
            ]
        }
    ],
    "materials" : [
        {
            "doubleSided" : true,
            "name" : "\u041c\u0430\u0442\u0435\u0440\u0438\u0430\u043b.003",
            "pbrMetallicRoughness" : {
                "baseColorTexture" : {
                    "index" : 0
                },
                "metallicFactor" : 0,
                "roughnessFactor" : 0.5
            }
        },
        {
            "doubleSided" : true,
            "name" : "\u041c\u0430\u0442\u0435\u0440\u0438\u0430\u043b.009",
            "pbrMetallicRoughness" : {
                "baseColorFactor" : [
                    0.6038153767585754,
                    0.6038153767585754,
                    0.6038153767585754,
                    1
                ],
                "metallicFactor" : 0,
                "roughnessFactor" : 0.5
            }
        },
        {
            "doubleSided" : true,
            "name" : "\u041c\u0430\u0442\u0435\u0440\u0438\u0430\u043b.010",
            "pbrMetallicRoughness" : {
                "metallicFactor" : 0,
                "roughnessFactor" : 0.5
            }
        },
        {
            "doubleSided" : true,
            "name" : "\u041c\u0430\u0442\u0435\u0440\u0438\u0430\u043b",
            "pbrMetallicRoughness" : {
                "baseColorFactor" : [
                    0.5173333883285522,
                    0.5173333883285522,
                    0.5173333883285522,
                    1
                ],
                "metallicFactor" : 0,
                "roughnessFactor" : 0.5
            }
        }
    ],
    "meshes" : [
        {
            "name" : "Cube",
            "primitives" : [
                {
                    "attributes" : {
                        "POSITION" : 0,
                        "NORMAL" : 1,
                        "TEXCOORD_0" : 2
                    },
                    "indices" : 3,
                    "material" : 0
                },
                {
                    "attributes" : {
                        "POSITION" : 4,
                        "NORMAL" : 5,
                        "TEXCOORD_0" : 6
                    },
                    "indices" : 7,
                    "material" : 1
                },
                {
                    "attributes" : {
                        "POSITION" : 8,
                        "NORMAL" : 9,
                        "TEXCOORD_0" : 10
                    },
                    "indices" : 11,
                    "material" : 2
                }
            ]
        },
        {
            "name" : "\u041a\u0443\u0431",
            "primitives" : [
                {
                    "attributes" : {
                        "POSITION" : 12,
                        "NORMAL" : 13,
                        "TANGENT" : 14,
                        "TEXCOORD_0" : 15
                    },
                    "indices" : 16,
                    "material" : 3
                }
            ]
        }
    ],
    "textures" : [
        {
            "sampler" : 0,
            "source" : 0
        }
    ],
    "images" : [
        {
            "bufferView" : 4,
            "mimeType" : "image/jpeg",
            "name" : "\u043b\u0430\u043c\u0438\u043d\u0430\u0442"
        }
    ],
    "accessors" : [
        {
            "bufferView" : 0,
            "componentType" : 5126,
            "count" : 403,
            "max" : [
                33.36808395385742,
                -6.352116584777832,
                33.90934371948242
            ],
            "min" : [
                -49.7003059387207,
                -6.393797874450684,
                -28.76387596130371
            ],
            "type" : "VEC3"
        },
        {
            "bufferView" : 1,
            "componentType" : 5126,
            "count" : 403,
            "type" : "VEC3"
        },
        {
            "bufferView" : 2,
            "componentType" : 5126,
            "count" : 403,
            "type" : "VEC2"
        },
        {
            "bufferView" : 3,
            "componentType" : 5123,
            "count" : 1026,
            "type" : "SCALAR"
        },
        {
            "bufferView" : 5,
            "componentType" : 5126,
            "count" : 1533,
            "max" : [
                33.372928619384766,
                7.2206010818481445,
                33.90934371948242
            ],
            "min" : [
                -49.70494079589844,
                -6.393797874450684,
                -28.76387596130371
            ],
            "type" : "VEC3"
        },
        {
            "bufferView" : 6,
            "componentType" : 5126,
            "count" : 1533,
            "type" : "VEC3"
        },
        {
            "bufferView" : 7,
            "componentType" : 5126,
            "count" : 1533,
            "type" : "VEC2"
        },
        {
            "bufferView" : 8,
            "componentType" : 5123,
            "count" : 3708,
            "type" : "SCALAR"
        },
        {
            "bufferView" : 9,
            "componentType" : 5126,
            "count" : 6,
            "max" : [
                31.348621368408203,
                7.095192909240723,
                32.02302932739258
            ],
            "min" : [
                -47.005001068115234,
                7.095192909240723,
                -28.59971046447754
            ],
            "type" : "VEC3"
        },
        {
            "bufferView" : 10,
            "componentType" : 5126,
            "count" : 6,
            "type" : "VEC3"
        },
        {
            "bufferView" : 11,
            "componentType" : 5126,
            "count" : 6,
            "type" : "VEC2"
        },
        {
            "bufferView" : 12,
            "componentType" : 5123,
            "count" : 12,
            "type" : "SCALAR"
        },
        {
            "bufferView" : 13,
            "componentType" : 5126,
            "count" : 637,
            "max" : [
                64.23878479003906,
                8.23342514038086,
                33.6314582824707
            ],
            "min" : [
                -85.4556884765625,
                -10.431325912475586,
                -54.73054504394531
            ],
            "type" : "VEC3"
        },
        {
            "bufferView" : 14,
            "componentType" : 5126,
            "count" : 637,
            "type" : "VEC3"
        },
        {
            "bufferView" : 15,
            "componentType" : 5126,
            "count" : 637,
            "type" : "VEC4"
        },
        {
            "bufferView" : 16,
            "componentType" : 5126,
            "count" : 637,
            "type" : "VEC2"
        },
        {
            "bufferView" : 17,
            "componentType" : 5123,
            "count" : 1188,
            "type" : "SCALAR"
        }
    ],
    "bufferViews" : [
        {
            "buffer" : 0,
            "byteLength" : 4836,
            "byteOffset" : 0
        },
        {
            "buffer" : 0,
            "byteLength" : 4836,
            "byteOffset" : 4836
        },
        {
            "buffer" : 0,
            "byteLength" : 3224,
            "byteOffset" : 9672
        },
        {
            "buffer" : 0,
            "byteLength" : 2052,
            "byteOffset" : 12896
        },
        {
            "buffer" : 0,
            "byteLength" : 691403,
            "byteOffset" : 14948
        },
        {
            "buffer" : 0,
            "byteLength" : 18396,
            "byteOffset" : 706352
        },
        {
            "buffer" : 0,
            "byteLength" : 18396,
            "byteOffset" : 724748
        },
        {
            "buffer" : 0,
            "byteLength" : 12264,
            "byteOffset" : 743144
        },
        {
            "buffer" : 0,
            "byteLength" : 7416,
            "byteOffset" : 755408
        },
        {
            "buffer" : 0,
            "byteLength" : 72,
            "byteOffset" : 762824
        },
        {
            "buffer" : 0,
            "byteLength" : 72,
            "byteOffset" : 762896
        },
        {
            "buffer" : 0,
            "byteLength" : 48,
            "byteOffset" : 762968
        },
        {
            "buffer" : 0,
            "byteLength" : 24,
            "byteOffset" : 763016
        },
        {
            "buffer" : 0,
            "byteLength" : 7644,
            "byteOffset" : 763040
        },
        {
            "buffer" : 0,
            "byteLength" : 7644,
            "byteOffset" : 770684
        },
        {
            "buffer" : 0,
            "byteLength" : 10192,
            "byteOffset" : 778328
        },
        {
            "buffer" : 0,
            "byteLength" : 5096,
            "byteOffset" : 788520
        },
        {
            "buffer" : 0,
            "byteLength" : 2376,
            "byteOffset" : 793616
        }
    ],
    "samplers" : [
        {
            "magFilter" : 9729,
            "minFilter" : 9987
        }
    ],
    "buffers" : [
        {
            "byteLength" : 795992,
            "uri" : "data:application/octet-stream;base64,"
        }
    ]
}
